<svg width="69" height="82" viewBox="0 0 69 82" fill="none" xmlns="http://www.w3.org/2000/svg">
<path d="M22.3398 0.289062H28.1016V19.8398H28.1797L39.5469 0.289062H45.6211V29H39.8594V9.56641H39.7812L28.4336 29H22.3398V0.289062Z" fill="#104690"/>
<path d="M0.09375 33.7109H5.62109V41.7969L13.5898 33.7109H20.9336L12.1445 42.5586L21.3047 55H14.0977L7.84766 46.0156L5.62109 48.2617V55H0.09375V33.7109Z" fill="#104690"/>
<path d="M23.1211 44.3555C23.1211 42.7148 23.3685 41.2044 23.8633 39.8242C24.3711 38.444 25.0938 37.2591 26.0312 36.2695C26.9818 35.2669 28.1276 34.4857 29.4688 33.9258C30.8099 33.3659 32.3203 33.0859 34 33.0859C35.7057 33.0859 37.2292 33.3659 38.5703 33.9258C39.9245 34.4857 41.0638 35.2669 41.9883 36.2695C42.9258 37.2591 43.6419 38.444 44.1367 39.8242C44.6315 41.2044 44.8789 42.7148 44.8789 44.3555C44.8789 45.9961 44.6315 47.5065 44.1367 48.8867C43.6419 50.2669 42.9258 51.4583 41.9883 52.4609C41.0638 53.4635 39.9245 54.2448 38.5703 54.8047C37.2292 55.3646 35.7057 55.6445 34 55.6445C32.3203 55.6445 30.8099 55.3646 29.4688 54.8047C28.1276 54.2448 26.9818 53.4635 26.0312 52.4609C25.0938 51.4583 24.3711 50.2669 23.8633 48.8867C23.3685 47.5065 23.1211 45.9961 23.1211 44.3555ZM28.8828 44.3555C28.8828 45.1628 28.9674 45.9635 29.1367 46.7578C29.319 47.5391 29.612 48.2422 30.0156 48.8672C30.4193 49.4792 30.9466 49.974 31.5977 50.3516C32.2487 50.7292 33.0495 50.918 34 50.918C34.9896 50.918 35.8099 50.7357 36.4609 50.3711C37.125 49.9935 37.6523 49.5052 38.043 48.9062C38.4336 48.2943 38.707 47.5977 38.8633 46.8164C39.0326 46.0221 39.1172 45.2018 39.1172 44.3555C39.1172 43.5221 39.0326 42.7083 38.8633 41.9141C38.707 41.1198 38.4336 40.4232 38.043 39.8242C37.6523 39.2122 37.125 38.724 36.4609 38.3594C35.8099 37.9818 34.9896 37.793 34 37.793C33.0495 37.793 32.2487 37.9818 31.5977 38.3594C30.9466 38.737 30.4193 39.2383 30.0156 39.8633C29.612 40.4753 29.319 41.1784 29.1367 41.9727C28.9674 42.7539 28.8828 43.5482 28.8828 44.3555Z" fill="#104690"/>
<path d="M48.8828 33.7109H54.4102V41.4062H62.5352V33.7109H68.043V55H62.5352V45.8789H54.4102V55H48.8828V33.7109Z" fill="#104690"/>
<path d="M13.4336 59.7109H18.9609V67.7969L26.9297 59.7109H34.2734L25.4844 68.5586L34.6445 81H27.4375L21.1875 72.0156L18.9609 74.2617V81H13.4336V59.7109Z" fill="#104690"/>
<path d="M54.9375 76.8008C54.9375 77.4388 54.9701 77.9661 55.0352 78.3828C55.1133 78.7865 55.2109 79.112 55.3281 79.3594C55.4453 79.5938 55.5755 79.7695 55.7188 79.8867C55.875 79.9909 56.0378 80.069 56.207 80.1211V81H50.0938C49.9896 80.7526 49.8724 80.4271 49.7422 80.0234C49.625 79.6068 49.5664 79.1055 49.5664 78.5195C49.1367 78.9622 48.7135 79.3724 48.2969 79.75C47.8932 80.1276 47.4375 80.4596 46.9297 80.7461C46.4219 81.0195 45.8359 81.2344 45.1719 81.3906C44.5078 81.5599 43.707 81.6445 42.7695 81.6445C41.819 81.6445 40.9401 81.5013 40.1328 81.2148C39.3385 80.9414 38.6484 80.5312 38.0625 79.9844C37.4766 79.4375 37.0208 78.7539 36.6953 77.9336C36.3698 77.1133 36.207 76.1628 36.207 75.082C36.207 74.2096 36.3438 73.4023 36.6172 72.6602C36.8906 71.9049 37.2747 71.2474 37.7695 70.6875C38.2773 70.1146 38.8893 69.6458 39.6055 69.2812C40.3346 68.9036 41.1484 68.6497 42.0469 68.5195L47.457 67.7188C47.6523 67.6927 47.8607 67.6536 48.082 67.6016C48.3164 67.5495 48.5312 67.4648 48.7266 67.3477C48.9219 67.2174 49.0846 67.0482 49.2148 66.8398C49.3451 66.6185 49.4102 66.3255 49.4102 65.9609C49.4102 65.6094 49.3516 65.2904 49.2344 65.0039C49.1302 64.7044 48.9479 64.4505 48.6875 64.2422C48.4271 64.0208 48.0755 63.8516 47.6328 63.7344C47.2031 63.6172 46.6628 63.5586 46.0117 63.5586C45.2695 63.5586 44.6706 63.6367 44.2148 63.793C43.7721 63.9362 43.4206 64.1445 43.1602 64.418C42.8997 64.6784 42.7109 64.9909 42.5938 65.3555C42.4766 65.707 42.3919 66.0846 42.3398 66.4883H36.8125C36.8125 66.2279 36.8516 65.8698 36.9297 65.4141C37.0208 64.9453 37.1771 64.4375 37.3984 63.8906C37.6328 63.3438 37.9518 62.7904 38.3555 62.2305C38.7721 61.6706 39.3125 61.1628 39.9766 60.707C40.6536 60.2383 41.474 59.8542 42.4375 59.5547C43.401 59.2552 44.5534 59.099 45.8945 59.0859C47.7956 59.0859 49.332 59.2812 50.5039 59.6719C51.6888 60.0495 52.6068 60.5508 53.2578 61.1758C53.9219 61.7878 54.3646 62.4779 54.5859 63.2461C54.8203 64.0013 54.9375 64.7565 54.9375 65.5117V76.8008ZM49.4102 70.6094C49.0716 70.7917 48.7331 70.9609 48.3945 71.1172C48.056 71.2604 47.6068 71.3841 47.0469 71.4883L45.582 71.7617C44.944 71.8789 44.3841 72.0156 43.9023 72.1719C43.4206 72.3281 43.0169 72.5365 42.6914 72.7969C42.3789 73.0443 42.138 73.3503 41.9688 73.7148C41.8125 74.0794 41.7344 74.5352 41.7344 75.082C41.7344 75.5378 41.806 75.9349 41.9492 76.2734C42.0924 76.599 42.2878 76.8724 42.5352 77.0938C42.7956 77.3021 43.0951 77.4583 43.4336 77.5625C43.7721 77.6667 44.1367 77.7188 44.5273 77.7188C44.7357 77.7188 45.0026 77.6992 45.3281 77.6602C45.6536 77.6081 45.9987 77.5169 46.3633 77.3867C46.7279 77.2565 47.0924 77.0807 47.457 76.8594C47.8216 76.625 48.1471 76.3255 48.4336 75.9609C48.7201 75.5964 48.9544 75.1536 49.1367 74.6328C49.319 74.099 49.4102 73.474 49.4102 72.7578V70.6094Z" fill="#104690"/>
</svg>
